<svg xmlns="http://www.w3.org/2000/svg" width="300" height="78" viewBox="0 0 1000 257"><path d="M142.27 10.47c13.86 23.81 27.84 47.55 41.55 71.45-22.16 39.09-44 78.37-66.91 117.03-8.79 14.84-17.34 29.82-26.03 44.71-28.18.17-56.36.16-84.54.12.86-1.93 1.71-3.87 2.75-5.71C53.46 162.19 98 86.41 142.27 10.47M755.46 69c15.58 29.04 31.15 58.07 46.71 87.12-5.49.11-10.98-.17-16.46.02-3.68-6.4-6.87-13.07-10.47-19.51-13.84-.41-27.69-.13-41.54-.16-3.34 6.63-6.98 13.09-10.52 19.6-5.41-.05-10.82.11-16.22.06 15.94-29.17 31.93-58.32 48.5-87.13m-14.83 55.05c9.44.13 18.89.11 28.34.19-4.73-8.8-8.99-17.85-14.06-26.46-4.86 8.71-9.62 17.46-14.28 26.27m70.62-55.39c23.52 20.44 47.04 40.89 70.27 61.67.64-18.75-.08-37.5.49-56.25 5.03.1 10.06.18 15.09.27-.16 28.88-.08 57.77-.11 86.65-15.45-12.85-30.29-26.42-45.55-39.51-8.49-7.26-16.9-14.6-25.01-22.27-.2 18.99.09 37.99-.32 56.98-5 .02-10-.11-14.99-.07.04-29.16-.21-58.31.13-87.47m-497.11 87.35c16.25-29.01 32.08-58.25 48.7-87.04 15.48 29.07 31.05 58.1 46.71 87.07-5.57.13-11.13.12-16.7.01-3.38-6.49-6.84-12.94-10.07-19.51-13.89-.18-27.77-.03-41.66-.03-3.62 6.55-6.89 13.31-10.8 19.7-5.4-.15-10.79-.04-16.18-.2m33.73-31.88c9.49-.04 18.99.09 28.49.06-4.78-8.75-8.98-17.81-14.11-26.37-4.83 8.76-9.6 17.53-14.38 26.31m197.52-47.64c7.94-3.91 17.24-4.42 25.83-2.69 7.44 1.57 13.42 6.86 17.96 12.72-4.03 2.04-8.03 4.11-11.99 6.28-5.34-8.35-18.05-11.01-25.8-4.5-4.11 2.94-3.78 10.18.86 12.42 10.4 5.73 23.05 6.96 32.27 14.89 9.4 7.97 9.04 23.9.33 32.26-9.35 9.48-24.16 11.54-36.59 7.99-10.41-2.63-18.24-12.2-19.63-22.72 5.03-1.1 10.11-2.01 15.2-2.8.61 4.93 2.48 10.36 7.13 12.84 7.36 3.95 18.03 2.96 23.11-4.17 3.58-4.85 2.52-12.3-2.37-15.85-10.22-6.85-23.79-7.27-32.96-15.9-4.84-4.12-6.85-11-5.2-17.11 1.31-6.23 6.4-10.84 11.85-13.66m-130.98-1.84c5.71-.75 11.48-.49 17.22-.43 6.14 9.14 12.27 18.28 18.42 27.41 6.47-9.02 12.76-18.17 19.14-27.25 5.89-.19 11.78-.29 17.67-.11-9.34 12.99-18.74 25.95-28.1 38.93 9.53 14.45 19.93 28.33 29.24 42.93-5.61.03-11.22-.02-16.83-.07-7.14-10.27-14.23-20.58-21.37-30.85-7.38 10.31-14.82 20.57-22.11 30.94-5.68.11-11.37.03-17.05.04 9.88-14.48 20.28-28.59 30.55-42.8-8.83-12.98-17.83-25.84-26.78-38.74m86.29-.36c5.06-.15 10.11-.14 15.17-.03.03 27.29.01 54.58.01 81.87-5.14.01-10.27 0-15.41 0 .19-27.28.1-54.56.23-81.84m147.64-.07c12.98.56 26.98-1.79 38.94 4.57 11.66 6.24 14.35 24.75 3.6 33.13 6.77 2.67 13.32 7.7 15.1 15.11 2.85 9.09-2.18 19.15-10.13 23.86-14.49 7.96-31.56 4.25-47.29 5.33-.49-27.33-.18-54.66-.22-82M663.4 86c.03 7.8.01 15.59-.04 23.38 5.64-.23 11.89.11 16.7-3.37 4.91-4.37 4.73-13.42-.69-17.31-4.74-3-10.59-2.66-15.97-2.7m.09 34.09c-.06 7.95-.03 15.91.12 23.86 7.57-.4 15.72 1 22.7-2.75 6.19-3.04 7.33-12.98 1.58-17.04-6.93-5.38-16.23-3.9-24.4-4.07m251.09-45.87c5.04-.04 10.08-.02 15.13-.01.02 10.78-.1 21.57.13 32.36 12.42-10.93 25.08-21.58 37.57-32.42 6.9.04 13.8.07 20.7.05a2805 2805 0 0 0-44.32 37.09c14.4 15.2 29.32 29.89 44.05 44.77-6.84-.07-13.69.47-20.5-.32-11.72-11.96-23.36-23.99-34.97-36.05q-1.275 1.68-2.52 3.36c-.3 11.03-.03 22.05-.22 33.08-5.07-.03-10.14.1-15.2.07.04-27.32.11-54.65.15-81.98m-772.3 81.41c28.28-.01 56.56-.21 84.84.26 16.84 29.36 34.22 58.4 50.91 87.84-28.28.14-56.55.03-84.83.01-16.83-29.46-34.41-58.47-50.92-88.11" style="opacity:1;fill:#ae285d"/></svg>