<svg xmlns="http://www.w3.org/2000/svg" data-name="Layer 2" viewBox="0 0 60 48"><defs><linearGradient id="a" x1="84.75" x2="86.64" y1="-18.34" y2="-14.68" gradientTransform="matrix(5 0 0 -5 -390.33 -69.95)" gradientUnits="userSpaceOnUse"><stop offset=".1" stop-color="#0096ff"/><stop offset=".18" stop-color="#1680ff"/><stop offset=".39" stop-color="#4d49ff"/><stop offset=".57" stop-color="#7521ff"/><stop offset=".71" stop-color="#8d09ff"/><stop offset=".8" stop-color="#9600ff"/></linearGradient><linearGradient id="b" x1="86.02" x2="87.48" y1="-14.69" y2="-19.92" gradientTransform="matrix(5 0 0 -5 -390.33 -69.95)" gradientUnits="userSpaceOnUse"><stop offset=".1" stop-color="#9600ff"/><stop offset=".27" stop-color="#b600df"/><stop offset=".5" stop-color="#de00b7"/><stop offset=".69" stop-color="#f6009f"/><stop offset=".8" stop-color="#ff0096"/></linearGradient><linearGradient id="c" x1="86.67" x2="89.57" y1="-19.73" y2="-14.13" gradientTransform="matrix(5 0 0 -5 -390.33 -69.95)" gradientUnits="userSpaceOnUse"><stop offset=".1" stop-color="#ff0096"/><stop offset=".19" stop-color="#ff1680"/><stop offset=".43" stop-color="#ff4d49"/><stop offset=".63" stop-color="#ff7521"/><stop offset=".8" stop-color="#ff8d09"/><stop offset=".9" stop-color="#ff9600"/></linearGradient></defs><g data-name="Layer 1"><path d="M2.78 47.8H0V35.28c0-2.32 1.14-3.59 3.04-3.59 1.35 0 2.22.63 3.07 2.83l3.65 9.6c.11.29.22.39.41.39.05 0 .1 0 .15-.02a.4.4 0 0 0 .13-.09c.04-.04.06-.09.08-.15s.02-.11.01-.17V31.8h2.8v12.52c0 2.31-1.09 3.57-2.98 3.57-1.35 0-2.32-.66-3.15-2.83l-3.65-9.58c-.11-.29-.22-.39-.41-.39-.05 0-.1 0-.15.02a.4.4 0 0 0-.13.09.36.36 0 0 0-.08.15c-.02.05-.02.11-.01.17zm23.53 0h-8.02c-1.52 0-2.41-.99-2.41-2.67V34.46c0-1.68.89-2.67 2.41-2.67h8.02v3.04h-7.02c-.07 0-.15 0-.21.03s-.13.07-.18.13-.09.13-.12.2q-.03.12-.03.24v2.71h7.19v2.96h-7.19v3.08c0 .08 0 .16.03.24.02.08.06.14.12.2.05.06.11.1.18.13q.105.045.21.03h7.02v3.03Zm2.56-16.02h2.87v9.67c0 2.05 1.39 3.51 3.28 3.51s3.28-1.46 3.28-3.51v-9.67h2.87v9.67c0 3.8-2.57 6.55-6.15 6.55s-6.15-2.75-6.15-6.55z"/><path d="M0 18.63h7.65v2.6H5.43v6.16H2.25v-6.16H0zm11.51 3.57L9.9 27.4H6.85l2.99-8.76h3.31l3.09 8.76h-3.09zm3.99-3.57h7.65v2.6h-2.19v6.16h-3.18v-6.16H15.5zm11.51 3.57-1.61 5.2h-3.05l2.99-8.76h3.31l3.09 8.76h-3.09z" style="fill-rule:evenodd"/><path d="M43.81 7.37c.24-.44.36-.94.36-1.45 0-1.57-1.15-2.85-2.57-2.85-1.09 0-2.02.75-2.39 1.81l-5.59 15.31c-.08.2-.13.42-.13.64 0 .85.62 1.53 1.38 1.53.51 0 .94-.3 1.18-.75L43.8 7.37Z" style="fill:url(#a)"/><path d="M39.09 6.54c-.1-.51-.09-1.06.12-1.64.35-.98 1.16-1.69 2.1-1.81 1.31-.16 2.44.77 2.76 2.07l5.43 19.15c.24.78.27 1.61.07 2.41-.39 1.62-1.65 2.85-3.15 3.06-2.07.28-3.86-1.3-4.18-3.44l-3.16-19.8Z" style="fill:url(#b)"/><path d="M59.35 8.19c.5-.97.72-2.07.63-3.18-.2-2.63-2.13-4.77-4.5-4.99-2.25-.21-4.22 1.25-5 3.39l-7.95 20.54c-.29.72-.39 1.5-.29 2.27.23 1.89 1.64 3.39 3.35 3.57 1.59.17 3-.77 3.69-2.19L59.36 8.19Z" style="fill:url(#c)"/></g></svg>