<?xml version="1.0" encoding="UTF-8"?>
<svg id="Layer_2" data-name="Layer 2" xmlns="http://www.w3.org/2000/svg" xmlns:xlink="http://www.w3.org/1999/xlink" viewBox="0 0 60 48">
  <defs>
    <style>
      .cls-1 {
        fill: url(#linear-gradient-2);
      }

      .cls-2 {
        fill: url(#linear-gradient-3);
      }

      .cls-3 {
        fill-rule: evenodd;
      }

      .cls-4 {
        fill: url(#linear-gradient);
      }
    </style>
    <linearGradient id="linear-gradient" x1="84.75" y1="-18.34" x2="86.64" y2="-14.68" gradientTransform="translate(-390.33 -69.95) scale(5 -5)" gradientUnits="userSpaceOnUse">
      <stop offset=".1" stop-color="#0096ff"/>
      <stop offset=".18" stop-color="#1680ff"/>
      <stop offset=".39" stop-color="#4d49ff"/>
      <stop offset=".57" stop-color="#7521ff"/>
      <stop offset=".71" stop-color="#8d09ff"/>
      <stop offset=".8" stop-color="#9600ff"/>
    </linearGradient>
    <linearGradient id="linear-gradient-2" x1="86.02" y1="-14.69" x2="87.48" y2="-19.92" gradientTransform="translate(-390.33 -69.95) scale(5 -5)" gradientUnits="userSpaceOnUse">
      <stop offset=".1" stop-color="#9600ff"/>
      <stop offset=".27" stop-color="#b600df"/>
      <stop offset=".5" stop-color="#de00b7"/>
      <stop offset=".69" stop-color="#f6009f"/>
      <stop offset=".8" stop-color="#ff0096"/>
    </linearGradient>
    <linearGradient id="linear-gradient-3" x1="86.67" y1="-19.73" x2="89.57" y2="-14.13" gradientTransform="translate(-390.33 -69.95) scale(5 -5)" gradientUnits="userSpaceOnUse">
      <stop offset=".1" stop-color="#ff0096"/>
      <stop offset=".19" stop-color="#ff1680"/>
      <stop offset=".43" stop-color="#ff4d49"/>
      <stop offset=".63" stop-color="#ff7521"/>
      <stop offset=".8" stop-color="#ff8d09"/>
      <stop offset=".9" stop-color="#ff9600"/>
    </linearGradient>
  </defs>
  <g id="Layer_1-2" data-name="Layer 1">
    <path d="M2.78,47.8H0v-12.52c0-2.32,1.14-3.59,3.04-3.59,1.35,0,2.22.63,3.07,2.83l3.65,9.6c.11.29.22.39.41.39.05,0,.1,0,.15-.02.05-.02.09-.05.13-.09.04-.04.06-.09.08-.15s.02-.11.01-.17v-12.28h2.8v12.52c0,2.31-1.09,3.57-2.98,3.57-1.35,0-2.32-.66-3.15-2.83l-3.65-9.58c-.11-.29-.22-.39-.41-.39-.05,0-.1,0-.15.02-.05.02-.09.05-.13.09-.04.04-.06.09-.08.15-.02.05-.02.11-.01.17v12.28Z"/>
    <path d="M26.31,47.8h-8.02c-1.52,0-2.41-.99-2.41-2.67v-10.67c0-1.68.89-2.67,2.41-2.67h8.02v3.04h-7.02c-.07,0-.15,0-.21.03s-.13.07-.18.13c-.05.06-.09.13-.12.2-.02.08-.03.16-.03.24v2.71h7.19v2.96h-7.19v3.08c0,.08,0,.16.03.24.02.08.06.14.12.2.05.06.11.1.18.13.07.03.14.04.21.03h7.02v3.03Z"/>
    <path d="M28.87,31.78h2.87v9.67c0,2.05,1.39,3.51,3.28,3.51s3.28-1.46,3.28-3.51v-9.67h2.87v9.67c0,3.8-2.57,6.55-6.15,6.55s-6.15-2.75-6.15-6.55v-9.67Z"/>
    <path class="cls-3" d="M0,18.63h7.65v2.6h-2.22v6.16h-3.18v-6.16H0v-2.6Z"/>
    <path class="cls-3" d="M11.51,22.2l-1.61,5.2h-3.05l2.99-8.76h3.31l3.09,8.76h-3.09l-1.64-5.2Z"/>
    <path class="cls-3" d="M15.5,18.63h7.65v2.6h-2.19v6.16h-3.18v-6.16h-2.28v-2.6Z"/>
    <path class="cls-3" d="M27.01,22.2l-1.61,5.2h-3.05l2.99-8.76h3.31l3.09,8.76h-3.09l-1.64-5.2Z"/>
    <g>
      <path class="cls-4" d="M43.81,7.37c.24-.44.36-.94.36-1.45,0-1.57-1.15-2.85-2.57-2.85-1.09,0-2.02.75-2.39,1.81l-5.59,15.31c-.08.2-.13.42-.13.64,0,.85.62,1.53,1.38,1.53.51,0,.94-.3,1.18-.75l7.75-14.24Z"/>
      <path class="cls-1" d="M39.09,6.54c-.1-.51-.09-1.06.12-1.64.35-.98,1.16-1.69,2.1-1.81,1.31-.16,2.44.77,2.76,2.07l5.43,19.15c.24.78.27,1.61.07,2.41-.39,1.62-1.65,2.85-3.15,3.06-2.07.28-3.86-1.3-4.18-3.44l-3.16-19.8Z"/>
      <path class="cls-2" d="M59.35,8.19c.5-.97.72-2.07.63-3.18-.2-2.63-2.13-4.77-4.5-4.99-2.25-.21-4.22,1.25-5,3.39l-7.95,20.54c-.29.72-.39,1.5-.29,2.27.23,1.89,1.64,3.39,3.35,3.57,1.59.17,3-.77,3.69-2.19l10.08-19.41Z"/>
    </g>
  </g>
</svg>